<svg width="18" height="18" viewBox="0 0 18 18" fill="none" xmlns="http://www.w3.org/2000/svg">
<g clip-path="url(#clip0_857_1010)">
<path fill-rule="evenodd" clip-rule="evenodd" d="M9.53222 11.7803C9.39157 11.9209 9.20084 11.9999 9.00197 11.9999C8.80309 11.9999 8.61236 11.9209 8.47172 11.7803L4.22897 7.53751C4.15733 7.46833 4.1002 7.38557 4.06089 7.29407C4.02158 7.20256 4.00089 7.10415 4.00003 7.00456C3.99916 6.90498 4.01814 6.80622 4.05585 6.71405C4.09356 6.62188 4.14925 6.53814 4.21967 6.46772C4.29009 6.3973 4.37383 6.34161 4.466 6.3039C4.55817 6.26619 4.65693 6.24721 4.75652 6.24808C4.8561 6.24894 4.95452 6.26963 5.04602 6.30894C5.13752 6.34824 5.22028 6.40538 5.28947 6.47701L9.00197 10.1895L12.7145 6.47701C12.8559 6.34039 13.0454 6.2648 13.242 6.26651C13.4387 6.26822 13.6268 6.34709 13.7658 6.48615C13.9049 6.6252 13.9838 6.81331 13.9855 7.00996C13.9872 7.20661 13.9116 7.39606 13.775 7.53751L9.53222 11.7803Z" fill="#3B82F6"/>
</g>
<defs>
<clipPath id="clip0_857_1010">
<rect width="18" height="18" fill="white"/>
</clipPath>
</defs>
</svg>
