<svg width="25" height="28" viewBox="0 0 25 28" fill="none" xmlns="http://www.w3.org/2000/svg">
<path d="M7.14974 23.7227C6.61502 23.7227 6.15726 23.5323 5.77648 23.1515C5.39569 22.7707 5.2053 22.3129 5.2053 21.7782C5.2053 21.2435 5.39569 20.7857 5.77648 20.4049C6.15726 20.0242 6.61502 19.8338 7.14974 19.8338C7.68446 19.8338 8.14222 20.0242 8.523 20.4049C8.90379 20.7857 9.09418 21.2435 9.09418 21.7782C9.09418 22.3129 8.90379 22.7707 8.523 23.1515C8.14222 23.5323 7.68446 23.7227 7.14974 23.7227ZM16.872 23.7227C16.3372 23.7227 15.8795 23.5323 15.4987 23.1515C15.1179 22.7707 14.9275 22.3129 14.9275 21.7782C14.9275 21.2435 15.1179 20.7857 15.4987 20.4049C15.8795 20.0242 16.3372 19.8338 16.872 19.8338C17.4067 19.8338 17.8644 20.0242 18.2452 20.4049C18.626 20.7857 18.8164 21.2435 18.8164 21.7782C18.8164 22.3129 18.626 22.7707 18.2452 23.1515C17.8644 23.5323 17.4067 23.7227 16.872 23.7227ZM6.32335 8.1671L8.65668 13.0282H15.4622L18.1359 8.1671H6.32335ZM5.39974 6.22266H19.74C20.1127 6.22266 20.3963 6.38874 20.5907 6.72092C20.7852 7.05309 20.7933 7.38932 20.615 7.7296L17.1636 13.9518C16.9854 14.2759 16.7464 14.5271 16.4466 14.7053C16.1468 14.8835 15.8187 14.9727 15.4622 14.9727H8.21918L7.14974 16.9171H18.8164V18.8615H7.14974C6.42057 18.8615 5.86965 18.5415 5.49696 17.9015C5.12428 17.2614 5.10807 16.6254 5.44835 15.9935L6.76085 13.6115L3.26085 6.22266H1.31641V4.27821H4.47613L5.39974 6.22266Z" fill="#3B82F6"/>
</svg>
