<svg width="24" height="24" viewBox="0 0 24 24" fill="none" xmlns="http://www.w3.org/2000/svg">
<path d="M14.7 2C16.38 2 17.22 2 17.862 2.34C18.4313 2.64347 18.8902 3.11912 19.173 3.699C19.5 4.364 19.5 5.235 19.5 6.978V17.022C19.5 18.765 19.5 19.636 19.173 20.302C18.8902 20.8819 18.4313 21.3575 17.862 21.661C17.22 22 16.38 22 14.7 22H9.3C7.62 22 6.78 22 6.138 21.66C5.56866 21.3565 5.10981 20.8809 4.827 20.301C4.5 19.636 4.5 18.765 4.5 17.022V6.978C4.5 5.235 4.5 4.364 4.827 3.698C5.10998 3.11849 5.56882 2.64321 6.138 2.34C6.78 2 7.62 2 9.3 2H14.7Z" stroke="#3B82F6" stroke-width="1.5" stroke-linecap="round" stroke-linejoin="round"/>
<path d="M9.5 21V15.5C9.5 14.9696 9.71071 14.4609 10.0858 14.0858C10.4609 13.7107 10.9696 13.5 11.5 13.5H12.5C13.0304 13.5 13.5391 13.7107 13.9142 14.0858C14.2893 14.4609 14.5 14.9696 14.5 15.5V21M10 6H8M10 10H8M16 6H14M16 10H14" stroke="#3B82F6" stroke-width="1.5" stroke-linecap="round" stroke-linejoin="round"/>
</svg>
