<svg width="28" height="21" viewBox="0 0 28 21" fill="none" xmlns="http://www.w3.org/2000/svg">
<path d="M10.058 11.5144C12.9614 11.5144 15.3152 9.16066 15.3152 6.25719C15.3152 3.35373 12.9614 1 10.058 1C7.15451 1 4.80078 3.35373 4.80078 6.25719C4.80078 9.16066 7.15451 11.5144 10.058 11.5144Z" stroke="#3B82F6" stroke-width="2" stroke-linecap="round" stroke-linejoin="round"/>
<path d="M19.2557 19.4002C19.2557 15.0446 15.1366 11.5144 10.0556 11.5144C4.97448 11.5144 0.855469 15.0446 0.855469 19.4002M17.9414 11.5144C18.8198 11.5143 19.6843 11.2942 20.4557 10.874C21.2272 10.4538 21.881 9.84699 22.3575 9.10901C22.8341 8.37103 23.1181 7.52541 23.1836 6.6494C23.2491 5.77339 23.0941 4.89492 22.7327 4.09425C22.3713 3.29359 21.815 2.59625 21.1146 2.06596C20.4143 1.53566 19.5922 1.18932 18.7236 1.05856C17.8549 0.927809 16.9673 1.01682 16.1419 1.31745C15.3165 1.61809 14.5796 2.12077 13.9985 2.77956" stroke="#3B82F6" stroke-width="2" stroke-linecap="round" stroke-linejoin="round"/>
<path d="M27.143 19.3996C27.143 15.044 23.024 11.5138 17.9429 11.5138C16.8823 11.5138 15.1789 11.1287 14 9.89062" stroke="#3B82F6" stroke-width="2" stroke-linecap="round" stroke-linejoin="round"/>
</svg>
