<svg width="25" height="28" viewBox="0 0 25 28" fill="none" xmlns="http://www.w3.org/2000/svg">
<path d="M11.0391 18.8615H12.9835V13.0282H11.0391V18.8615ZM12.0113 11.0838C12.2867 11.0838 12.5177 10.9906 12.704 10.8043C12.8903 10.6179 12.9835 10.387 12.9835 10.1115C12.9835 9.83608 12.8903 9.60518 12.704 9.41884C12.5177 9.23249 12.2867 9.13932 12.0113 9.13932C11.7358 9.13932 11.5049 9.23249 11.3186 9.41884C11.1322 9.60518 11.0391 9.83608 11.0391 10.1115C11.0391 10.387 11.1322 10.6179 11.3186 10.8043C11.5049 10.9906 11.7358 11.0838 12.0113 11.0838ZM12.0113 23.7227C10.6664 23.7227 9.40249 23.4674 8.21962 22.957C7.03675 22.4466 6.00781 21.7539 5.13281 20.8789C4.25781 20.0039 3.5651 18.975 3.05469 17.7921C2.54427 16.6092 2.28906 15.3453 2.28906 14.0004C2.28906 12.6555 2.54427 11.3916 3.05469 10.2088C3.5651 9.0259 4.25781 7.99696 5.13281 7.12196C6.00781 6.24696 7.03675 5.55425 8.21962 5.04384C9.40249 4.53342 10.6664 4.27821 12.0113 4.27821C13.3562 4.27821 14.6201 4.53342 15.803 5.04384C16.9858 5.55425 18.0148 6.24696 18.8898 7.12196C19.7648 7.99696 20.4575 9.0259 20.9679 10.2088C21.4783 11.3916 21.7335 12.6555 21.7335 14.0004C21.7335 15.3453 21.4783 16.6092 20.9679 17.7921C20.4575 18.975 19.7648 20.0039 18.8898 20.8789C18.0148 21.7539 16.9858 22.4466 15.803 22.957C14.6201 23.4674 13.3562 23.7227 12.0113 23.7227ZM12.0113 21.7782C14.1826 21.7782 16.0217 21.0247 17.5286 19.5178C19.0356 18.0109 19.7891 16.1717 19.7891 14.0004C19.7891 11.8291 19.0356 9.99002 17.5286 8.48307C16.0217 6.97613 14.1826 6.22266 12.0113 6.22266C9.83999 6.22266 8.00087 6.97613 6.49392 8.48307C4.98698 9.99002 4.23351 11.8291 4.23351 14.0004C4.23351 16.1717 4.98698 18.0109 6.49392 19.5178C8.00087 21.0247 9.83999 21.7782 12.0113 21.7782Z" fill="#3B82F6"/>
</svg>
