<svg width="23" height="22" viewBox="0 0 23 22" fill="none" xmlns="http://www.w3.org/2000/svg">
<path fill-rule="evenodd" clip-rule="evenodd" d="M4.375 21.9432H19.5417C20.3926 21.9432 21.2086 21.6052 21.8103 21.0035C22.412 20.4018 22.75 19.5858 22.75 18.7349V12.3182C22.75 12.0861 22.6578 11.8636 22.4937 11.6995C22.3296 11.5354 22.1071 11.4432 21.875 11.4432H18.0833V2.33505C18.0833 0.67488 16.2062 -0.29112 14.8552 0.673714L14.651 0.819547C14.2039 1.13691 13.669 1.30701 13.1208 1.30618C12.5725 1.30534 12.0381 1.13361 11.592 0.81488C10.8472 0.284827 9.9558 0 9.04167 0C8.12753 0 7.23611 0.284827 6.49133 0.81488C6.04522 1.13361 5.51085 1.30534 4.96258 1.30618C4.41431 1.30701 3.87941 1.13691 3.43233 0.819547L3.22817 0.673714C1.87717 -0.29112 0 0.673713 0 2.33505V17.5682C0 18.7285 0.460936 19.8413 1.28141 20.6618C2.10188 21.4823 3.21468 21.9432 4.375 21.9432ZM7.50867 2.23821C7.9566 1.92023 8.49234 1.74941 9.04167 1.74941C9.59099 1.74941 10.1267 1.92023 10.5747 2.23821C11.3175 2.76919 12.2075 3.05513 13.1206 3.05618C14.0336 3.05722 14.9243 2.77332 15.6683 2.24405L15.8725 2.09821C15.9161 2.06719 15.9673 2.04875 16.0207 2.0449C16.074 2.04105 16.1274 2.05195 16.175 2.0764C16.2226 2.10084 16.2625 2.1379 16.2904 2.18352C16.3183 2.22914 16.3332 2.28156 16.3333 2.33505V18.7349C16.3333 19.2599 16.4593 19.7557 16.6833 20.1932H4.375C3.67881 20.1932 3.01113 19.9167 2.51884 19.4244C2.02656 18.9321 1.75 18.2644 1.75 17.5682V2.33505C1.75014 2.28156 1.76499 2.22914 1.79291 2.18352C1.82084 2.1379 1.86077 2.10084 1.90835 2.0764C1.95592 2.05195 2.0093 2.04105 2.06265 2.0449C2.116 2.04875 2.16726 2.06719 2.21083 2.09821L2.415 2.24405C3.15904 2.77332 4.04969 3.05722 4.96277 3.05618C5.87585 3.05513 6.76584 2.76919 7.50867 2.23821ZM18.0833 18.7349V13.1932H21V18.7349C21 19.1217 20.8464 19.4926 20.5729 19.7661C20.2994 20.0396 19.9284 20.1932 19.5417 20.1932C19.1549 20.1932 18.784 20.0396 18.5105 19.7661C18.237 19.4926 18.0833 19.1217 18.0833 18.7349Z" fill="#3B82F6"/>
</svg>
