<svg width="27" height="22" viewBox="0 0 27 22" fill="none" xmlns="http://www.w3.org/2000/svg">
<path d="M5.625 14.3333V19.7083H24.375V7.16667H20.625V5.375H25.0481C25.4663 5.375 25.6181 5.41621 25.77 5.49504C25.9217 5.5711 26.0459 5.68911 26.1263 5.83367C26.2069 5.97879 26.25 6.12392 26.25 6.52346V20.3515C26.25 20.7511 26.2069 20.8962 26.1244 21.0413C26.0448 21.1863 25.9213 21.3049 25.77 21.3817C25.6181 21.4588 25.4663 21.5 25.0481 21.5H4.95188C4.53375 21.5 4.38188 21.4588 4.23 21.38C4.0783 21.3039 3.95414 21.1859 3.87375 21.0413C3.795 20.8962 3.75 20.7511 3.75 20.3533V14.3333H5.625Z" fill="#3B82F6"/>
<path d="M20.625 1.79167H1.875V14.3333H20.625V1.79167ZM22.5 1.14846V14.9765C22.5 15.3761 22.4569 15.5212 22.3744 15.6663C22.2948 15.8113 22.1713 15.9299 22.02 16.0067C21.8681 16.0838 21.7163 16.125 21.2981 16.125H1.20188C0.78375 16.125 0.631875 16.0838 0.48 16.005C0.328301 15.9289 0.204142 15.8109 0.12375 15.6663C0.045 15.5212 0 15.3761 0 14.9783V1.14846C0 0.748917 0.0431251 0.603792 0.125625 0.458667C0.205218 0.31371 0.328723 0.195069 0.48 0.11825C0.631875 0.043 0.78375 0 1.2 0H21.2962C21.7144 0 21.8663 0.0412082 22.0181 0.120042C22.1698 0.196097 22.294 0.314113 22.3744 0.458667C22.455 0.603792 22.4981 0.748917 22.4981 1.14846H22.5Z" fill="#3B82F6"/>
<path d="M11.25 12.5423C10.0068 12.5423 8.81451 12.0704 7.93544 11.2304C7.05636 10.3904 6.5625 9.2511 6.5625 8.06315C6.5625 6.8752 7.05636 5.73591 7.93544 4.8959C8.81451 4.0559 10.0068 3.58398 11.25 3.58398C12.4932 3.58398 13.6855 4.0559 14.5646 4.8959C15.4436 5.73591 15.9375 6.8752 15.9375 8.06315C15.9375 9.2511 15.4436 10.3904 14.5646 11.2304C13.6855 12.0704 12.4932 12.5423 11.25 12.5423ZM11.25 10.7507C11.9959 10.7507 12.7113 10.4675 13.2387 9.9635C13.7662 9.4595 14.0625 8.77592 14.0625 8.06315C14.0625 7.35038 13.7662 6.66681 13.2387 6.1628C12.7113 5.6588 11.9959 5.37565 11.25 5.37565C10.5041 5.37565 9.78871 5.6588 9.26126 6.1628C8.73382 6.66681 8.4375 7.35038 8.4375 8.06315C8.4375 8.77592 8.73382 9.4595 9.26126 9.9635C9.78871 10.4675 10.5041 10.7507 11.25 10.7507Z" fill="#3B82F6"/>
</svg>
