<svg width="28" height="25" viewBox="0 0 28 25" fill="none" xmlns="http://www.w3.org/2000/svg">
<path d="M27.719 9.2359H19.5917C19.452 9.2359 19.3378 9.35019 19.3378 9.48988V11.0137C19.3378 11.1534 19.452 11.2677 19.5917 11.2677H27.719C27.8587 11.2677 27.973 11.1534 27.973 11.0137V9.48988C27.973 9.35019 27.8587 9.2359 27.719 9.2359ZM23.4649 13.5535H19.5917C19.452 13.5535 19.3378 13.6678 19.3378 13.8075V15.3314C19.3378 15.4711 19.452 15.5853 19.5917 15.5853H23.4649C23.6046 15.5853 23.7189 15.4711 23.7189 15.3314V13.8075C23.7189 13.6678 23.6046 13.5535 23.4649 13.5535ZM12.8708 6.39453H11.4962C11.2994 6.39453 11.1406 6.55327 11.1406 6.7501V14.6234C11.1406 14.7377 11.1946 14.8425 11.2867 14.9091L16.0138 18.3569C16.1726 18.4712 16.3948 18.4394 16.5091 18.2807L17.325 17.1664V17.1632C17.4393 17.0044 17.4043 16.7822 17.2456 16.6679L13.2232 13.7599V6.7501C13.2264 6.55327 13.0645 6.39453 12.8708 6.39453Z" fill="#3B82F6"/>
<path d="M23.2644 17.5508H21.4294C21.2516 17.5508 21.0833 17.6429 20.9881 17.7953C20.5849 18.4334 20.115 19.0239 19.5753 19.5636C18.6451 20.4938 17.5626 21.224 16.3593 21.7319C15.1117 22.2589 13.7878 22.5256 12.4227 22.5256C11.0544 22.5256 9.73054 22.2589 8.48605 21.7319C7.28283 21.224 6.20025 20.4938 5.27006 19.5636C4.33986 18.6334 3.60968 17.5508 3.10172 16.3476C2.57472 15.1031 2.30804 13.7792 2.30804 12.4109C2.30804 11.0426 2.57472 9.72196 3.10172 8.47429C3.60968 7.27108 4.33986 6.1885 5.27006 5.2583C6.20025 4.32811 7.28283 3.59793 8.48605 3.08997C9.73054 2.56297 11.0576 2.29629 12.4227 2.29629C13.791 2.29629 15.1149 2.56297 16.3593 3.08997C17.5626 3.59793 18.6451 4.32811 19.5753 5.2583C20.115 5.79801 20.5849 6.3885 20.9881 7.02662C21.0833 7.17901 21.2516 7.27108 21.4294 7.27108H23.2644C23.4834 7.27108 23.6231 7.0425 23.5247 6.84884C21.4548 2.73123 17.2578 0.0549386 12.5719 0.000968373C5.71134 -0.084749 0.0127206 5.53133 2.16891e-05 12.3855C-0.0126772 19.2525 5.55261 24.8241 12.4195 24.8241C17.1657 24.8241 21.4326 22.1383 23.5247 17.9731C23.6231 17.7794 23.4802 17.5508 23.2644 17.5508Z" fill="#3B82F6"/>
</svg>
