<svg width="26" height="26" viewBox="0 0 26 26" fill="none" xmlns="http://www.w3.org/2000/svg">
<path d="M25.0807 8.90628C26.6359 7.35117 25.9267 5.53481 25.0807 4.65151L21.3482 0.919258C19.7806 -0.635847 17.9766 0.0732811 17.0933 0.919258L14.9782 3.04664H11.7559C9.39197 3.04664 8.0234 4.29073 7.32668 5.72142L1.80265 11.2452V16.2215L0.919307 17.0924C-0.63588 18.6599 0.0732849 20.4638 0.919307 21.3471L4.65176 25.0794C5.3236 25.7512 6.0452 26 6.72949 26C7.61283 26 8.42153 25.5646 8.90675 25.0794L12.266 21.7079H16.7324C18.8475 21.7079 19.9175 20.3892 20.3032 19.0953C21.709 18.7221 22.4804 17.6522 22.7915 16.6072C24.7199 16.1095 25.4415 14.2807 25.4415 12.9993V9.26706H24.7074L25.0807 8.90628ZM22.9532 12.9993C22.9532 13.5592 22.7168 14.2434 21.709 14.2434H20.4649V15.4875C20.4649 16.0473 20.2285 16.7316 19.2207 16.7316H17.9766V17.9757C17.9766 18.5355 17.7402 19.2197 16.7324 19.2197H11.2457L7.16494 23.3003C6.77925 23.6611 6.5553 23.4496 6.41845 23.3128L2.69844 19.6054C2.33764 19.2197 2.54914 18.9958 2.686 18.859L4.29095 17.2416V12.2653L6.77925 9.77714V11.7552C6.77925 13.2606 7.77457 15.4875 10.5117 15.4875C13.2488 15.4875 14.2442 13.2606 14.2442 11.7552H22.9532V12.9993ZM23.314 7.13968L21.1989 9.26706H11.7559V11.7552C11.7559 12.3151 11.5195 12.9993 10.5117 12.9993C9.50394 12.9993 9.26755 12.3151 9.26755 11.7552V8.02298C9.26755 7.4507 9.47906 5.53481 11.7559 5.53481H15.9984L18.8351 2.6983C19.2207 2.33751 19.4447 2.54901 19.5816 2.68586L23.3016 6.39323C23.6624 6.7789 23.4509 7.00283 23.314 7.13968Z" fill="#3B82F6"/>
</svg>
