<svg width="27" height="27" viewBox="0 0 27 27" fill="none" xmlns="http://www.w3.org/2000/svg">
<path d="M3.49219 5.58349C6.9741 3.77516 11.4045 2.10682 15.538 1.09007C16.7473 0.792571 17.9968 1.23999 18.6256 2.31449C19.0748 3.08215 19.6231 4.13449 20.2029 5.50999M16.2059 17.0215C16.2614 18.264 17.2192 19.1897 18.4611 19.2393C19.094 19.265 19.8809 19.2831 20.8353 19.2831C21.7896 19.2831 22.5765 19.265 23.2094 19.2393C24.4519 19.1897 25.4092 18.264 25.4646 17.0215C25.4868 16.5157 25.5019 15.9108 25.5019 15.1997C25.5019 14.4887 25.4868 13.8837 25.4646 13.378C25.4092 12.1355 24.4514 11.2097 23.2094 11.1602C22.4184 11.1298 21.6269 11.1152 20.8353 11.1164C19.8809 11.1164 19.094 11.1345 18.4611 11.1602C17.2186 11.2097 16.2614 12.1355 16.2059 13.378C16.1801 13.9849 16.1677 14.5923 16.1686 15.1997C16.1686 15.9114 16.1838 16.5157 16.2059 17.0215Z" stroke="#3B82F6" stroke-width="2" stroke-linecap="round" stroke-linejoin="round"/>
<path d="M23.0932 11.1556C23.0568 10.18 22.9998 9.2052 22.9223 8.23195C22.8009 6.74387 21.6453 5.62445 20.1561 5.5212C18.4411 5.4022 15.7951 5.2832 12.0833 5.2832C8.37158 5.2832 5.725 5.4022 4.01 5.5212C2.52133 5.62387 1.36575 6.74387 1.24442 8.23195C1.119 9.76845 1 12.0575 1 15.1999C1 18.3423 1.119 20.6307 1.24442 22.1678C1.36575 23.6559 2.52133 24.7753 4.01058 24.8785C5.725 24.9975 8.37158 25.1165 12.0833 25.1165C15.7951 25.1165 18.4417 24.9975 20.1561 24.8785C21.6453 24.7759 22.8009 23.6559 22.9223 22.1678C22.9858 21.3902 23.0477 20.4201 23.0932 19.2441M20.25 14.6165V15.7832" stroke="#3B82F6" stroke-width="2" stroke-linecap="round" stroke-linejoin="round"/>
</svg>
