<svg width="21" height="21" viewBox="0 0 21 21" fill="none" xmlns="http://www.w3.org/2000/svg">
<path d="M2.625 12.25V8.75C2.625 5.45038 2.625 3.80012 3.6505 2.7755C4.676 1.75087 6.32538 1.75 9.625 1.75H11.375C14.6746 1.75 16.3249 1.75 17.3495 2.7755C17.9217 3.34687 18.1746 4.1125 18.2858 5.25M18.375 8.75V12.25C18.375 15.5496 18.375 17.1999 17.3495 18.2245C16.324 19.2491 14.6746 19.25 11.375 19.25H9.625C6.32538 19.25 4.67512 19.25 3.6505 18.2245C3.07825 17.6531 2.82538 16.8875 2.71425 15.75M7 12.25H11.375M7 8.75H7.875M14 8.75H10.5" stroke="white" stroke-width="1.5" stroke-linecap="round"/>
</svg>
