<svg width="20" height="24" viewBox="0 0 20 24" fill="none" xmlns="http://www.w3.org/2000/svg">
<path d="M0.832031 18.666V16.3327C0.832031 15.8605 0.953559 15.4264 1.19661 15.0306C1.43967 14.6348 1.76259 14.3327 2.16536 14.1243C3.02648 13.6938 3.90148 13.3709 4.79036 13.1556C5.67925 12.9403 6.58203 12.8327 7.4987 12.8327C8.41536 12.8327 9.31814 12.9403 10.207 13.1556C11.0959 13.3709 11.9709 13.6938 12.832 14.1243C13.2348 14.3327 13.5577 14.6348 13.8008 15.0306C14.0438 15.4264 14.1654 15.8605 14.1654 16.3327V18.666H0.832031ZM15.832 18.666V16.166C15.832 15.5549 15.6619 14.9681 15.3216 14.4056C14.9813 13.8431 14.4987 13.3605 13.8737 12.9577C14.582 13.041 15.2487 13.1834 15.8737 13.3848C16.4987 13.5862 17.082 13.8327 17.6237 14.1243C18.1237 14.4021 18.5056 14.7112 18.7695 15.0514C19.0334 15.3917 19.1654 15.7632 19.1654 16.166V18.666H15.832ZM7.4987 11.9993C6.58203 11.9993 5.79731 11.673 5.14453 11.0202C4.49175 10.3674 4.16536 9.58268 4.16536 8.66602C4.16536 7.74935 4.49175 6.96463 5.14453 6.31185C5.79731 5.65907 6.58203 5.33268 7.4987 5.33268C8.41536 5.33268 9.20009 5.65907 9.85287 6.31185C10.5056 6.96463 10.832 7.74935 10.832 8.66602C10.832 9.58268 10.5056 10.3674 9.85287 11.0202C9.20009 11.673 8.41536 11.9993 7.4987 11.9993ZM15.832 8.66602C15.832 9.58268 15.5056 10.3674 14.8529 11.0202C14.2001 11.673 13.4154 11.9993 12.4987 11.9993C12.3459 11.9993 12.1515 11.982 11.9154 11.9473C11.6793 11.9125 11.4848 11.8743 11.332 11.8327C11.707 11.3882 11.9952 10.8952 12.1966 10.3535C12.398 9.81185 12.4987 9.24935 12.4987 8.66602C12.4987 8.08268 12.398 7.52018 12.1966 6.97852C11.9952 6.43685 11.707 5.94379 11.332 5.49935C11.5265 5.4299 11.7209 5.38477 11.9154 5.36393C12.1098 5.3431 12.3043 5.33268 12.4987 5.33268C13.4154 5.33268 14.2001 5.65907 14.8529 6.31185C15.5056 6.96463 15.832 7.74935 15.832 8.66602ZM2.4987 16.9993H12.4987V16.3327C12.4987 16.1799 12.4605 16.041 12.3841 15.916C12.3077 15.791 12.207 15.6938 12.082 15.6243C11.332 15.2493 10.5751 14.9681 9.8112 14.7806C9.04731 14.5931 8.27648 14.4993 7.4987 14.4993C6.72092 14.4993 5.95009 14.5931 5.1862 14.7806C4.42231 14.9681 3.66536 15.2493 2.91536 15.6243C2.79036 15.6938 2.68967 15.791 2.61328 15.916C2.53689 16.041 2.4987 16.1799 2.4987 16.3327V16.9993ZM7.4987 10.3327C7.95703 10.3327 8.34939 10.1695 8.67578 9.8431C9.00217 9.51671 9.16537 9.12435 9.16537 8.66602C9.16537 8.20768 9.00217 7.81532 8.67578 7.48893C8.34939 7.16254 7.95703 6.99935 7.4987 6.99935C7.04036 6.99935 6.648 7.16254 6.32161 7.48893C5.99523 7.81532 5.83203 8.20768 5.83203 8.66602C5.83203 9.12435 5.99523 9.51671 6.32161 9.8431C6.648 10.1695 7.04036 10.3327 7.4987 10.3327Z" fill="#64748B"/>
</svg>
