<svg width="21" height="21" viewBox="0 0 21 21" fill="none" xmlns="http://www.w3.org/2000/svg">
<path d="M4.10112 5.43641L5.95 16.604C6.03457 17.1153 6.29789 17.5799 6.69305 17.9151C7.08821 18.2504 7.58955 18.4344 8.10775 18.4345H11.0373M16.898 5.43641L15.05 16.604C14.9654 17.1153 14.7021 17.5799 14.3069 17.9151C13.9118 18.2504 13.4105 18.4344 12.8923 18.4345H9.96275M8.76925 9.72653V14.1444M12.2307 9.72653V14.1444M2.40625 5.43641H18.5938M12.9299 5.43641V3.87891C12.9299 3.53081 12.7916 3.19697 12.5455 2.95083C12.2993 2.70469 11.9655 2.56641 11.6174 2.56641H9.38262C9.03453 2.56641 8.70069 2.70469 8.45455 2.95083C8.20841 3.19697 8.07012 3.53081 8.07012 3.87891V5.43641H12.9299Z" stroke="#FF0004" stroke-width="1.3125" stroke-linecap="round" stroke-linejoin="round"/>
</svg>
