<svg width="21" height="21" viewBox="0 0 21 21" fill="none" xmlns="http://www.w3.org/2000/svg">
<path d="M7.875 3.90255C8.72379 3.63288 9.60941 3.49708 10.5 3.50005C14.1593 3.50005 16.6495 5.68755 18.1344 7.61605C18.8781 8.5838 19.25 9.06592 19.25 10.5C19.25 11.935 18.8781 12.4172 18.1344 13.384C16.6495 15.3125 14.1593 17.5 10.5 17.5C6.84075 17.5 4.3505 15.3125 2.86563 13.384C2.12188 12.418 1.75 11.9342 1.75 10.5C1.75 9.06505 2.12188 8.58292 2.86563 7.61605C3.31931 7.02352 3.8244 6.47217 4.375 5.96842" stroke="#6B7280" stroke-width="1.3125" stroke-linecap="round"/>
<path d="M13.125 10.5C13.125 11.1962 12.8484 11.8639 12.3562 12.3562C11.8639 12.8484 11.1962 13.125 10.5 13.125C9.80381 13.125 9.13613 12.8484 8.64384 12.3562C8.15156 11.8639 7.875 11.1962 7.875 10.5C7.875 9.80381 8.15156 9.13613 8.64384 8.64384C9.13613 8.15156 9.80381 7.875 10.5 7.875C11.1962 7.875 11.8639 8.15156 12.3562 8.64384C12.8484 9.13613 13.125 9.80381 13.125 10.5Z" stroke="#6B7280" stroke-width="1.3125"/>
</svg>
