<svg width="20" height="24" viewBox="0 0 20 24" fill="none" xmlns="http://www.w3.org/2000/svg">
<path d="M8 15L9.16667 13.7917L7.375 12L9.16667 10.2083L8 9L5 12L8 15ZM12 15L15 12L12 9L10.8333 10.2083L12.625 12L10.8333 13.7917L12 15ZM4.16667 19.5C3.70833 19.5 3.31597 19.3368 2.98958 19.0104C2.66319 18.684 2.5 18.2917 2.5 17.8333V6.16667C2.5 5.70833 2.66319 5.31597 2.98958 4.98958C3.31597 4.66319 3.70833 4.5 4.16667 4.5H7.66667C7.84722 4 8.14931 3.59722 8.57292 3.29166C8.99653 2.98611 9.47222 2.83333 10 2.83333C10.5278 2.83333 11.0035 2.98611 11.4271 3.29166C11.8507 3.59722 12.1528 4 12.3333 4.5H15.8333C16.2917 4.5 16.684 4.66319 17.0104 4.98958C17.3368 5.31597 17.5 5.70833 17.5 6.16667V17.8333C17.5 18.2917 17.3368 18.684 17.0104 19.0104C16.684 19.3368 16.2917 19.5 15.8333 19.5H4.16667ZM4.16667 17.8333H15.8333V6.16667H4.16667V17.8333ZM10 5.54167C10.1806 5.54167 10.3299 5.48264 10.4479 5.36458C10.566 5.24653 10.625 5.09722 10.625 4.91667C10.625 4.73611 10.566 4.5868 10.4479 4.46875C10.3299 4.35069 10.1806 4.29167 10 4.29167C9.81944 4.29167 9.67014 4.35069 9.55208 4.46875C9.43403 4.5868 9.375 4.73611 9.375 4.91667C9.375 5.09722 9.43403 5.24653 9.55208 5.36458C9.67014 5.48264 9.81944 5.54167 10 5.54167Z" fill="#64748B"/>
</svg>
