<svg width="20" height="24" viewBox="0 0 20 24" fill="none" xmlns="http://www.w3.org/2000/svg">
<path d="M5 20.334C4.30556 20.334 3.71528 20.0909 3.22917 19.6048C2.74306 19.1187 2.5 18.5284 2.5 17.834V15.334H5V3.66732L6.25 4.91732L7.5 3.66732L8.75 4.91732L10 3.66732L11.25 4.91732L12.5 3.66732L13.75 4.91732L15 3.66732L16.25 4.91732L17.5 3.66732V17.834C17.5 18.5284 17.2569 19.1187 16.7708 19.6048C16.2847 20.0909 15.6944 20.334 15 20.334H5ZM15 18.6673C15.2361 18.6673 15.434 18.5875 15.5938 18.4277C15.7535 18.268 15.8333 18.0701 15.8333 17.834V6.16732H6.66667V15.334H14.1667V17.834C14.1667 18.0701 14.2465 18.268 14.4062 18.4277C14.566 18.5875 14.7639 18.6673 15 18.6673ZM7.5 9.50065V7.83398H12.5V9.50065H7.5ZM7.5 12.0007V10.334H12.5V12.0007H7.5ZM14.1667 9.50065C13.9306 9.50065 13.7326 9.42079 13.5729 9.26107C13.4132 9.10134 13.3333 8.90343 13.3333 8.66732C13.3333 8.4312 13.4132 8.23329 13.5729 8.07357C13.7326 7.91384 13.9306 7.83398 14.1667 7.83398C14.4028 7.83398 14.6007 7.91384 14.7604 8.07357C14.9201 8.23329 15 8.4312 15 8.66732C15 8.90343 14.9201 9.10134 14.7604 9.26107C14.6007 9.42079 14.4028 9.50065 14.1667 9.50065ZM14.1667 12.0007C13.9306 12.0007 13.7326 11.9208 13.5729 11.7611C13.4132 11.6013 13.3333 11.4034 13.3333 11.1673C13.3333 10.9312 13.4132 10.7333 13.5729 10.5736C13.7326 10.4138 13.9306 10.334 14.1667 10.334C14.4028 10.334 14.6007 10.4138 14.7604 10.5736C14.9201 10.7333 15 10.9312 15 11.1673C15 11.4034 14.9201 11.6013 14.7604 11.7611C14.6007 11.9208 14.4028 12.0007 14.1667 12.0007ZM5 18.6673H12.5V17.0007H4.16667V17.834C4.16667 18.0701 4.24653 18.268 4.40625 18.4277C4.56597 18.5875 4.76389 18.6673 5 18.6673ZM4.16667 18.6673C4.16667 18.6673 4.16667 18.5875 4.16667 18.4277C4.16667 18.268 4.16667 18.0701 4.16667 17.834V17.0007V18.6673Z" fill="#64748B"/>
</svg>
