<svg width="20" height="24" viewBox="0 0 20 24" fill="none" xmlns="http://www.w3.org/2000/svg">
<path d="M4.9987 20.3335C4.54036 20.3335 4.148 20.1703 3.82161 19.8439C3.49523 19.5175 3.33203 19.1252 3.33203 18.6668V10.3335C3.33203 9.87516 3.49523 9.4828 3.82161 9.15641C4.148 8.83002 4.54036 8.66683 4.9987 8.66683H5.83203V7.00016C5.83203 5.84738 6.23828 4.86475 7.05078 4.05225C7.86328 3.23975 8.84592 2.8335 9.9987 2.8335C11.1515 2.8335 12.1341 3.23975 12.9466 4.05225C13.7591 4.86475 14.1654 5.84738 14.1654 7.00016V8.66683H14.9987C15.457 8.66683 15.8494 8.83002 16.1758 9.15641C16.5022 9.4828 16.6654 9.87516 16.6654 10.3335V18.6668C16.6654 19.1252 16.5022 19.5175 16.1758 19.8439C15.8494 20.1703 15.457 20.3335 14.9987 20.3335H4.9987ZM4.9987 18.6668H14.9987V10.3335H4.9987V18.6668ZM9.9987 16.1668C10.457 16.1668 10.8494 16.0036 11.1758 15.6772C11.5022 15.3509 11.6654 14.9585 11.6654 14.5002C11.6654 14.0418 11.5022 13.6495 11.1758 13.3231C10.8494 12.9967 10.457 12.8335 9.9987 12.8335C9.54036 12.8335 9.148 12.9967 8.82161 13.3231C8.49523 13.6495 8.33203 14.0418 8.33203 14.5002C8.33203 14.9585 8.49523 15.3509 8.82161 15.6772C9.148 16.0036 9.54036 16.1668 9.9987 16.1668ZM7.4987 8.66683H12.4987V7.00016C12.4987 6.30572 12.2556 5.71544 11.7695 5.22933C11.2834 4.74322 10.6931 4.50016 9.9987 4.50016C9.30425 4.50016 8.71398 4.74322 8.22786 5.22933C7.74175 5.71544 7.4987 6.30572 7.4987 7.00016V8.66683Z" fill="#6B7280"/>
</svg>
