<svg width="25" height="28" viewBox="0 0 25 28" fill="none" xmlns="http://www.w3.org/2000/svg">
<path d="M4.23351 21.7778C3.69878 21.7778 3.24103 21.5874 2.86024 21.2067C2.47946 20.8259 2.28906 20.3681 2.28906 19.8334V8.16672C2.28906 7.632 2.47946 7.17424 2.86024 6.79346C3.24103 6.41267 3.69878 6.22228 4.23351 6.22228H19.7891C20.3238 6.22228 20.7815 6.41267 21.1623 6.79346C21.5431 7.17424 21.7335 7.632 21.7335 8.16672V19.8334C21.7335 20.3681 21.5431 20.8259 21.1623 21.2067C20.7815 21.5874 20.3238 21.7778 19.7891 21.7778H4.23351ZM12.0113 14.9723L4.23351 10.1112V19.8334H19.7891V10.1112L12.0113 14.9723ZM12.0113 13.0278L19.7891 8.16672H4.23351L12.0113 13.0278Z" fill="#9CA3AF"/>
</svg>
