<svg width="20" height="24" viewBox="0 0 20 24" fill="none" xmlns="http://www.w3.org/2000/svg">
<path d="M11.6654 12.8327C10.9709 12.8327 10.3806 12.5896 9.89453 12.1035C9.40842 11.6174 9.16537 11.0271 9.16537 10.3327C9.16537 9.63824 9.40842 9.04796 9.89453 8.56185C10.3806 8.07574 10.9709 7.83268 11.6654 7.83268C12.3598 7.83268 12.9501 8.07574 13.4362 8.56185C13.9223 9.04796 14.1654 9.63824 14.1654 10.3327C14.1654 11.0271 13.9223 11.6174 13.4362 12.1035C12.9501 12.5896 12.3598 12.8327 11.6654 12.8327ZM5.83203 15.3327C5.3737 15.3327 4.98134 15.1695 4.65495 14.8431C4.32856 14.5167 4.16536 14.1243 4.16536 13.666V6.99935C4.16536 6.54102 4.32856 6.14865 4.65495 5.82227C4.98134 5.49588 5.3737 5.33268 5.83203 5.33268H17.4987C17.957 5.33268 18.3494 5.49588 18.6758 5.82227C19.0022 6.14865 19.1654 6.54102 19.1654 6.99935V13.666C19.1654 14.1243 19.0022 14.5167 18.6758 14.8431C18.3494 15.1695 17.957 15.3327 17.4987 15.3327H5.83203ZM7.4987 13.666H15.832C15.832 13.2077 15.9952 12.8153 16.3216 12.4889C16.648 12.1625 17.0404 11.9993 17.4987 11.9993V8.66602C17.0404 8.66602 16.648 8.50282 16.3216 8.17643C15.9952 7.85004 15.832 7.45768 15.832 6.99935H7.4987C7.4987 7.45768 7.3355 7.85004 7.00911 8.17643C6.68273 8.50282 6.29036 8.66602 5.83203 8.66602V11.9993C6.29036 11.9993 6.68273 12.1625 7.00911 12.4889C7.3355 12.8153 7.4987 13.2077 7.4987 13.666ZM16.6654 18.666H2.4987C2.04036 18.666 1.648 18.5028 1.32161 18.1764C0.995226 17.85 0.832031 17.4577 0.832031 16.9993V7.83268H2.4987V16.9993H16.6654V18.666Z" fill="#3B82F6"/>
</svg>
