<svg width="20" height="24" viewBox="0 0 20 24" fill="none" xmlns="http://www.w3.org/2000/svg">
<path d="M10.0013 20.3335C8.84853 20.3335 7.76519 20.1147 6.7513 19.6772C5.73741 19.2397 4.85547 18.646 4.10547 17.896C3.35547 17.146 2.76172 16.2641 2.32422 15.2502C1.88672 14.2363 1.66797 13.1529 1.66797 12.0002H3.33464C3.33464 12.9168 3.50825 13.7814 3.85547 14.5939C4.20269 15.4064 4.67839 16.1147 5.28255 16.7189C5.88672 17.3231 6.59505 17.8022 7.40755 18.1564C8.22005 18.5106 9.08464 18.6877 10.0013 18.6877C11.8624 18.6877 13.4388 18.0418 14.7305 16.7502C16.0221 15.4585 16.668 13.8821 16.668 12.021C16.668 10.1599 16.0221 8.58349 14.7305 7.29183C13.4388 6.00016 11.8624 5.35433 10.0013 5.35433C8.76519 5.35433 7.64366 5.65641 6.63672 6.26058C5.62977 6.86474 4.83464 7.66683 4.2513 8.66683H6.66797V10.3335H1.66797V5.33349H3.33464V7.00016C4.09852 5.98627 5.05686 5.17724 6.20964 4.57308C7.36241 3.96891 8.6263 3.66683 10.0013 3.66683C11.1541 3.66683 12.2374 3.88558 13.2513 4.32308C14.2652 4.76058 15.1471 5.35433 15.8971 6.10433C16.6471 6.85433 17.2409 7.73627 17.6784 8.75016C18.1159 9.76405 18.3346 10.8474 18.3346 12.0002C18.3346 13.1529 18.1159 14.2363 17.6784 15.2502C17.2409 16.2641 16.6471 17.146 15.8971 17.896C15.1471 18.646 14.2652 19.2397 13.2513 19.6772C12.2374 20.1147 11.1541 20.3335 10.0013 20.3335ZM8.33464 15.3335C8.09853 15.3335 7.90061 15.2536 7.74089 15.0939C7.58116 14.9342 7.5013 14.7363 7.5013 14.5002V12.0002C7.5013 11.7641 7.58116 11.5661 7.74089 11.4064C7.90061 11.2467 8.09853 11.1668 8.33464 11.1668V10.3335C8.33464 9.87516 8.49783 9.4828 8.82422 9.15641C9.15061 8.83002 9.54297 8.66683 10.0013 8.66683C10.4596 8.66683 10.852 8.83002 11.1784 9.15641C11.5048 9.4828 11.668 9.87516 11.668 10.3335V11.1668C11.9041 11.1668 12.102 11.2467 12.2617 11.4064C12.4214 11.5661 12.5013 11.7641 12.5013 12.0002V14.5002C12.5013 14.7363 12.4214 14.9342 12.2617 15.0939C12.102 15.2536 11.9041 15.3335 11.668 15.3335H8.33464ZM9.16797 11.1668H10.8346V10.3335C10.8346 10.0974 10.7548 9.89947 10.5951 9.73974C10.4353 9.58002 10.2374 9.50016 10.0013 9.50016C9.76519 9.50016 9.56728 9.58002 9.40755 9.73974C9.24783 9.89947 9.16797 10.0974 9.16797 10.3335V11.1668Z" fill="#6B7280"/>
</svg>
