<svg width="20" height="24" viewBox="0 0 20 24" fill="none" xmlns="http://www.w3.org/2000/svg">
<path d="M16.3333 19.5L11.0833 14.25C10.6667 14.5833 10.1875 14.8472 9.64583 15.0417C9.10417 15.2361 8.52778 15.3333 7.91667 15.3333C6.40278 15.3333 5.12153 14.809 4.07292 13.7604C3.02431 12.7118 2.5 11.4306 2.5 9.91667C2.5 8.40278 3.02431 7.12153 4.07292 6.07292C5.12153 5.02431 6.40278 4.5 7.91667 4.5C9.43056 4.5 10.7118 5.02431 11.7604 6.07292C12.809 7.12153 13.3333 8.40278 13.3333 9.91667C13.3333 10.5278 13.2361 11.1042 13.0417 11.6458C12.8472 12.1875 12.5833 12.6667 12.25 13.0833L17.5 18.3333L16.3333 19.5ZM7.91667 13.6667C8.95833 13.6667 9.84375 13.3021 10.5729 12.5729C11.3021 11.8438 11.6667 10.9583 11.6667 9.91667C11.6667 8.875 11.3021 7.98958 10.5729 7.26042C9.84375 6.53125 8.95833 6.16667 7.91667 6.16667C6.875 6.16667 5.98958 6.53125 5.26042 7.26042C4.53125 7.98958 4.16667 8.875 4.16667 9.91667C4.16667 10.9583 4.53125 11.8438 5.26042 12.5729C5.98958 13.3021 6.875 13.6667 7.91667 13.6667Z" fill="#9CA3AF"/>
</svg>
