<svg width="20" height="24" viewBox="0 0 20 24" fill="none" xmlns="http://www.w3.org/2000/svg">
<path d="M7.70833 20.334L7.375 17.6673C7.19444 17.5979 7.02431 17.5145 6.86458 17.4173C6.70486 17.3201 6.54861 17.2159 6.39583 17.1048L3.91667 18.1465L1.625 14.1882L3.77083 12.5631C3.75694 12.4659 3.75 12.3722 3.75 12.2819C3.75 12.1916 3.75 12.0979 3.75 12.0007C3.75 11.9034 3.75 11.8097 3.75 11.7194C3.75 11.6291 3.75694 11.5354 3.77083 11.4382L1.625 9.81315L3.91667 5.85482L6.39583 6.89648C6.54861 6.78537 6.70833 6.6812 6.875 6.58398C7.04167 6.48676 7.20833 6.40343 7.375 6.33398L7.70833 3.66732H12.2917L12.625 6.33398C12.8056 6.40343 12.9757 6.48676 13.1354 6.58398C13.2951 6.6812 13.4514 6.78537 13.6042 6.89648L16.0833 5.85482L18.375 9.81315L16.2292 11.4382C16.2431 11.5354 16.25 11.6291 16.25 11.7194C16.25 11.8097 16.25 11.9034 16.25 12.0007C16.25 12.0979 16.25 12.1916 16.25 12.2819C16.25 12.3722 16.2361 12.4659 16.2083 12.5631L18.3542 14.1882L16.0625 18.1465L13.6042 17.1048C13.4514 17.2159 13.2917 17.3201 13.125 17.4173C12.9583 17.5145 12.7917 17.5979 12.625 17.6673L12.2917 20.334H7.70833ZM9.16667 18.6673H10.8125L11.1042 16.459C11.5347 16.3479 11.934 16.1847 12.3021 15.9694C12.6701 15.7541 13.0069 15.4937 13.3125 15.1882L15.375 16.0423L16.1875 14.6257L14.3958 13.2715C14.4653 13.077 14.5139 12.8722 14.5417 12.6569C14.5694 12.4416 14.5833 12.2229 14.5833 12.0007C14.5833 11.7784 14.5694 11.5597 14.5417 11.3444C14.5139 11.1291 14.4653 10.9243 14.3958 10.7298L16.1875 9.37565L15.375 7.95898L13.3125 8.83398C13.0069 8.51454 12.6701 8.24718 12.3021 8.0319C11.934 7.81662 11.5347 7.65343 11.1042 7.54232L10.8333 5.33398H9.1875L8.89583 7.54232C8.46528 7.65343 8.06597 7.81662 7.69792 8.0319C7.32986 8.24718 6.99306 8.50759 6.6875 8.81315L4.625 7.95898L3.8125 9.37565L5.60417 10.709C5.53472 10.9173 5.48611 11.1257 5.45833 11.334C5.43056 11.5423 5.41667 11.7645 5.41667 12.0007C5.41667 12.2229 5.43056 12.4381 5.45833 12.6465C5.48611 12.8548 5.53472 13.0632 5.60417 13.2715L3.8125 14.6257L4.625 16.0423L6.6875 15.1673C6.99306 15.4868 7.32986 15.7541 7.69792 15.9694C8.06597 16.1847 8.46528 16.3479 8.89583 16.459L9.16667 18.6673ZM10.0417 14.9173C10.8472 14.9173 11.5347 14.6326 12.1042 14.0632C12.6736 13.4937 12.9583 12.8062 12.9583 12.0007C12.9583 11.1951 12.6736 10.5076 12.1042 9.93815C11.5347 9.36871 10.8472 9.08398 10.0417 9.08398C9.22222 9.08398 8.53125 9.36871 7.96875 9.93815C7.40625 10.5076 7.125 11.1951 7.125 12.0007C7.125 12.8062 7.40625 13.4937 7.96875 14.0632C8.53125 14.6326 9.22222 14.9173 10.0417 14.9173Z" fill="#3B82F6"/>
</svg>
