<svg width="21" height="21" viewBox="0 0 21 21" fill="none" xmlns="http://www.w3.org/2000/svg">
<g clip-path="url(#clip0_150_5810)">
<path d="M10.7625 1.3125H6.3C5.17519 1.3125 4.41 1.3125 3.81937 1.36237C3.2445 1.40831 2.94919 1.49362 2.74444 1.59862C2.25053 1.85029 1.84898 2.25185 1.59731 2.74575C1.49231 2.9505 1.407 3.2445 1.36106 3.82069C1.3125 4.41 1.31119 5.17125 1.31119 6.3V13.3875C1.31119 14.5123 1.3125 15.2775 1.36106 15.8681C1.40831 16.443 1.49362 16.7383 1.59731 16.9431C1.84931 17.4366 2.25094 17.8382 2.74444 18.0902C2.94919 18.1952 3.2445 18.2805 3.81937 18.3264C4.1475 18.3527 4.52812 18.3658 4.99406 18.3711C5.16469 18.8436 5.42456 19.2924 5.77631 19.6836C3.91256 19.6809 2.92819 19.6481 2.15381 19.2544C1.41364 18.877 0.811813 18.2752 0.434436 17.535C0.00524902 16.6924 0.00524902 15.5925 0.00524902 13.3875V6.3C0.00524902 4.095 0.00524902 2.9925 0.434436 2.1525C0.813274 1.41339 1.41471 0.811962 2.15381 0.433124C2.99644 0.00393681 4.09631 0.00393677 6.30131 0.00393677H10.7638C12.9688 0.00393677 14.0713 0.00393681 14.9113 0.433124C15.6504 0.811962 16.2518 1.41339 16.6307 2.1525C16.9457 2.76937 17.0297 3.53062 17.052 4.76437C16.8947 4.76152 16.7373 4.76809 16.5808 4.78406C16.3306 4.47754 16.037 4.20915 15.7093 3.98737L15.6975 3.82987C15.6502 3.255 15.5662 2.95969 15.4612 2.75362C15.2094 2.26021 14.8078 1.85913 14.3141 1.60781C14.1094 1.50281 13.8154 1.4175 13.2392 1.37156C12.6486 1.323 11.8873 1.32169 10.7586 1.32169L10.7625 1.3125Z" fill="white"/>
<path d="M10.5919 3.9375H3.28125C3.1072 3.9375 2.94028 4.00664 2.81721 4.12971C2.69414 4.25278 2.625 4.4197 2.625 4.59375C2.625 4.7678 2.69414 4.93472 2.81721 5.05779C2.94028 5.18086 3.1072 5.25 3.28125 5.25H7.31063C8.03208 4.8567 8.85572 4.69106 9.67313 4.77488C9.93825 4.45069 10.2519 4.16719 10.605 3.9375H10.5919ZM3.28125 7.875H5.00063C4.84648 8.29565 4.76525 8.73952 4.76044 9.1875H3.29044C3.11639 9.1875 2.94947 9.11836 2.8264 8.99529C2.70333 8.87222 2.63419 8.7053 2.63419 8.53125C2.63419 8.3572 2.70333 8.19028 2.8264 8.06721C2.94947 7.94414 3.11639 7.875 3.29044 7.875H3.28125ZM3.39938 11.8125H3.276C3.10195 11.8125 2.93503 11.8816 2.81196 12.0047C2.68889 12.1278 2.61975 12.2947 2.61975 12.4688C2.61975 12.6428 2.68889 12.8097 2.81196 12.9328C2.93503 13.0559 3.10195 13.125 3.276 13.125V12.8126C3.276 12.467 3.31713 12.1336 3.39938 11.8125Z" fill="white"/>
<path fill-rule="evenodd" clip-rule="evenodd" d="M13.125 15.75C14.5687 15.75 15.75 14.5753 15.75 13.125C15.75 11.6812 14.5753 10.5 13.125 10.5C11.6812 10.5 10.5 11.6747 10.5 13.125C10.5 14.5687 11.6747 15.75 13.125 15.75ZM13.125 14.4375C13.4731 14.4375 13.8069 14.2992 14.0531 14.0531C14.2992 13.8069 14.4375 13.4731 14.4375 13.125C14.4375 12.7769 14.2992 12.4431 14.0531 12.1969C13.8069 11.9508 13.4731 11.8125 13.125 11.8125C12.7769 11.8125 12.4431 11.9508 12.1969 12.1969C11.9508 12.4431 11.8125 12.7769 11.8125 13.125C11.8125 13.4731 11.9508 13.8069 12.1969 14.0531C12.4431 14.2992 12.7769 14.4375 13.125 14.4375Z" fill="white"/>
<path fill-rule="evenodd" clip-rule="evenodd" d="M13.3875 5.24999H12.7654C11.7285 5.24999 10.8623 6.00467 10.7048 6.99561C10.6116 7.03156 10.5192 7.06964 10.4278 7.1098C10.0251 6.82271 9.53361 6.68794 9.04083 6.72953C8.54805 6.77112 8.08605 6.98635 7.73719 7.33686L7.29488 7.77918C6.94531 8.12858 6.73073 8.59046 6.68917 9.08295C6.6476 9.57545 6.78174 10.0668 7.06781 10.4698C7.02756 10.5617 6.9895 10.654 6.95363 10.7467C6.46633 10.8291 6.02386 11.0811 5.70441 11.4582C5.38497 11.8353 5.20914 12.3132 5.208 12.8074V13.4295C5.208 14.4703 5.96531 15.3326 6.95363 15.5032C6.98863 15.5942 7.02581 15.6844 7.06519 15.7736C6.7768 16.178 6.64109 16.6716 6.68218 17.1666C6.72327 17.6616 6.9385 18.126 7.28963 18.4774L7.72275 18.9105C8.46038 19.6481 9.61275 19.7242 10.4396 19.131C10.5254 19.1704 10.612 19.2067 10.6995 19.2399C10.7804 19.7314 11.0334 20.1781 11.4133 20.5002C11.7932 20.8224 12.2752 20.9991 12.7733 20.9987H13.3744C14.4244 20.9987 15.2906 20.2322 15.4613 19.2268C15.547 19.1927 15.6319 19.1572 15.7159 19.1205C16.5401 19.7164 17.6978 19.6429 18.4459 18.9013L18.8672 18.48C19.6087 17.7384 19.6822 16.5769 19.0864 15.75C19.124 15.6651 19.1594 15.5802 19.1927 15.4954C19.6876 15.4144 20.1377 15.16 20.4623 14.7777C20.7869 14.3953 20.9649 13.91 20.9646 13.4085V12.8074C20.9646 11.7613 20.202 10.8911 19.2058 10.7336C19.1718 10.6453 19.136 10.5578 19.0982 10.4711C19.6888 9.6508 19.6153 8.50236 18.8751 7.75424L18.4446 7.32374C18.0932 6.97261 17.6288 6.75739 17.1338 6.71629C16.6388 6.6752 16.1452 6.81091 15.7408 7.0993C15.6515 7.05967 15.5614 7.02203 15.4704 6.98643C15.3877 6.49691 15.1338 6.05269 14.754 5.73297C14.3742 5.41326 13.8931 5.23883 13.3967 5.2408L13.3875 5.24999ZM11.9831 7.34999C11.9831 6.91817 12.3323 6.56905 12.7641 6.56905H13.3862C13.8193 6.56905 14.1711 6.9208 14.1711 7.35393C14.1711 7.72405 14.4323 8.03774 14.7827 8.15849C14.9892 8.22936 15.1896 8.31293 15.3838 8.40918C15.7172 8.57324 16.1267 8.53649 16.3892 8.27399C16.5368 8.12692 16.7367 8.04434 16.945 8.04434C17.1534 8.04434 17.3533 8.12692 17.5009 8.27399L17.9327 8.7058C18.0808 8.85418 18.164 9.05527 18.164 9.26493C18.164 9.47458 18.0808 9.67567 17.9327 9.82405C17.6689 10.0879 17.6308 10.4974 17.7936 10.8321C17.8854 11.0219 17.9659 11.2175 18.0351 11.4187C18.1571 11.7731 18.4734 12.0382 18.8475 12.0382C19.2846 12.0382 19.6389 12.3926 19.6389 12.8297V13.4308C19.6389 13.6417 19.5551 13.8441 19.406 13.9932C19.2568 14.1424 19.0545 14.2262 18.8436 14.2262C18.4682 14.2262 18.1506 14.4913 18.0272 14.8444C17.9589 15.0421 17.8793 15.2342 17.7883 15.4205C17.6243 15.7579 17.661 16.1713 17.9274 16.4364C18.0014 16.5102 18.0602 16.5978 18.1002 16.6944C18.1403 16.7909 18.1609 16.8943 18.1609 16.9988C18.1609 17.1033 18.1403 17.2068 18.1002 17.3033C18.0602 17.3998 18.0014 17.4875 17.9274 17.5612L17.5061 17.9826C17.4324 18.0566 17.3447 18.1153 17.2482 18.1554C17.1517 18.1954 17.0482 18.216 16.9437 18.216C16.8392 18.216 16.7358 18.1954 16.6392 18.1554C16.5427 18.1153 16.4551 18.0566 16.3813 17.9826C16.1162 17.7174 15.7028 17.6794 15.3654 17.8434C15.1791 17.9344 14.987 18.0141 14.7892 18.0823C14.4349 18.2057 14.1697 18.5233 14.1697 18.8987C14.1697 19.1096 14.086 19.3119 13.9368 19.4611C13.7876 19.6103 13.5853 19.694 13.3744 19.694H12.7733C12.5633 19.694 12.362 19.6107 12.2136 19.4622C12.0652 19.3138 11.9818 19.1125 11.9818 18.9026C11.9818 18.5286 11.7167 18.2109 11.3623 18.0902C11.1621 18.0216 10.9661 17.9409 10.7756 17.8487C10.4409 17.6859 10.0314 17.724 9.76763 17.9865C9.61924 18.1346 9.41815 18.2178 9.2085 18.2178C8.99885 18.2178 8.79776 18.1346 8.64938 17.9865L8.21756 17.5547C8.07049 17.4071 7.98791 17.2072 7.98791 16.9988C7.98791 16.7905 8.07049 16.5906 8.21756 16.443C8.48006 16.1805 8.51681 15.771 8.35275 15.4376C8.25683 15.2426 8.1731 15.0419 8.10206 14.8365C7.98131 14.486 7.66763 14.2249 7.2975 14.2249C7.08955 14.2242 6.89032 14.1413 6.74327 13.9942C6.59623 13.8472 6.51332 13.6479 6.51263 13.44V12.8179C6.51263 12.386 6.86175 12.0369 7.29356 12.0369C7.66369 12.0369 7.97606 11.7757 8.0955 11.4253C8.16699 11.2163 8.25159 11.012 8.34881 10.8137C8.51156 10.4829 8.47481 10.0774 8.21363 9.81618C8.06727 9.66952 7.98508 9.4708 7.98508 9.26361C7.98508 9.05643 8.06727 8.8577 8.21363 8.71105L8.65594 8.26874C8.80259 8.12239 9.00131 8.04019 9.2085 8.04019C9.41569 8.04019 9.61441 8.12239 9.76106 8.26874C10.0223 8.52993 10.4278 8.56668 10.7586 8.40393C10.9554 8.30768 11.1593 8.22324 11.3702 8.15061C11.7206 8.03249 11.9818 7.7188 11.9818 7.34868L11.9831 7.34999Z" fill="white"/>
</g>
<defs>
<clipPath id="clip0_150_5810">
<rect width="21" height="21" fill="white"/>
</clipPath>
</defs>
</svg>
