<svg width="25" height="28" viewBox="0 0 25 28" fill="none" xmlns="http://www.w3.org/2000/svg">
<path d="M12.0109 17.889C13.2261 17.889 14.2591 17.4637 15.1098 16.613C15.9605 15.7623 16.3859 14.7293 16.3859 13.514C16.3859 12.2987 15.9605 11.2657 15.1098 10.415C14.2591 9.56434 13.2261 9.139 12.0109 9.139C10.7956 9.139 9.76259 9.56434 8.91189 10.415C8.0612 11.2657 7.63585 12.2987 7.63585 13.514C7.63585 14.7293 8.0612 15.7623 8.91189 16.613C9.76259 17.4637 10.7956 17.889 12.0109 17.889ZM12.0109 16.139C11.2817 16.139 10.6619 15.8838 10.1515 15.3734C9.64106 14.863 9.38585 14.2432 9.38585 13.514C9.38585 12.7848 9.64106 12.165 10.1515 11.6546C10.6619 11.1442 11.2817 10.889 12.0109 10.889C12.74 10.889 13.3598 11.1442 13.8702 11.6546C14.3806 12.165 14.6359 12.7848 14.6359 13.514C14.6359 14.2432 14.3806 14.863 13.8702 15.3734C13.3598 15.8838 12.74 16.139 12.0109 16.139ZM12.0109 20.8057C9.64511 20.8057 7.49002 20.1454 5.54557 18.8248C3.60113 17.5042 2.19141 15.7339 1.31641 13.514C2.19141 11.2941 3.60113 9.52384 5.54557 8.20323C7.49002 6.88263 9.64511 6.22233 12.0109 6.22233C14.3766 6.22233 16.5317 6.88263 18.4761 8.20323C20.4206 9.52384 21.8303 11.2941 22.7053 13.514C21.8303 15.7339 20.4206 17.5042 18.4761 18.8248C16.5317 20.1454 14.3766 20.8057 12.0109 20.8057ZM12.0109 18.8612C13.8419 18.8612 15.523 18.3792 17.0543 17.415C18.5855 16.4509 19.7562 15.1506 20.5664 13.514C19.7562 11.8774 18.5855 10.5771 17.0543 9.61296C15.523 8.64884 13.8419 8.16677 12.0109 8.16677C10.1798 8.16677 8.4987 8.64884 6.96745 9.61296C5.4362 10.5771 4.26548 11.8774 3.4553 13.514C4.26548 15.1506 5.4362 16.4509 6.96745 17.415C8.4987 18.3792 10.1798 18.8612 12.0109 18.8612Z" fill="#9CA3AF"/>
<line x1="22.6364" y1="5.78087" x2="2.63641" y2="21.7809" stroke="#9CA3AF" stroke-width="2"/>
</svg>
