<svg width="150" height="150" viewBox="0 0 150 150" fill="none" xmlns="http://www.w3.org/2000/svg">
<g clip-path="url(#clip0_640_570)">
<rect width="150" height="150" fill="#3599FF"/>
<path d="M92.223 52.6151C91.8679 48.7088 90.2876 45.6726 87.4822 43.5064C84.7124 41.3047 80.7528 40.2038 75.6037 40.2038C72.1946 40.2038 69.3537 40.6477 67.081 41.5355C64.8082 42.4233 63.1037 43.6484 61.9673 45.2109C60.831 46.7379 60.245 48.4957 60.2095 50.4844C60.1385 52.1179 60.4581 53.5561 61.1683 54.799C61.9141 56.0419 62.9794 57.1428 64.3643 58.1016C65.7848 59.0249 67.4893 59.8416 69.478 60.5518C71.4666 61.2621 73.7038 61.8835 76.1896 62.4162L85.5646 64.5469C90.9624 65.7188 95.7209 67.2812 99.8402 69.2344C103.995 71.1875 107.475 73.5135 110.281 76.2124C113.121 78.9112 115.27 82.0185 116.726 85.5341C118.182 89.0497 118.928 92.9915 118.963 97.3594C118.928 104.249 117.188 110.161 113.743 115.097C110.298 120.033 105.344 123.815 98.8814 126.443C92.4538 129.071 84.6946 130.385 75.6037 130.385C66.4773 130.385 58.5227 129.018 51.7401 126.283C44.9574 123.549 39.6839 119.394 35.9197 113.819C32.1555 108.244 30.2202 101.195 30.1136 92.6719H55.3622C55.5753 96.1875 56.5163 99.1172 58.1854 101.461C59.8544 103.805 62.1449 105.58 65.0568 106.788C68.0043 107.995 71.4134 108.599 75.2841 108.599C78.8352 108.599 81.8537 108.119 84.3395 107.161C86.8608 106.202 88.7962 104.87 90.1456 103.165C91.495 101.461 92.1875 99.5078 92.223 97.3061C92.1875 95.2464 91.5483 93.4886 90.3054 92.0327C89.0625 90.5412 87.1449 89.2628 84.5526 88.1974C81.9957 87.0966 78.7287 86.0845 74.7514 85.1612L63.3523 82.4979C53.9062 80.3317 46.4666 76.8338 41.0334 72.0043C35.6001 67.1392 32.9013 60.5696 32.9368 52.2955C32.9013 45.5483 34.7124 39.6357 38.37 34.5575C42.0277 29.4794 47.0881 25.5199 53.5511 22.679C60.0142 19.8381 67.3828 18.4176 75.657 18.4176C84.1087 18.4176 91.4418 19.8558 97.6562 22.7322C103.906 25.5732 108.754 29.5682 112.198 34.7173C115.643 39.8665 117.401 45.8324 117.472 52.6151H92.223Z" fill="white"/>
</g>
<defs>
<clipPath id="clip0_640_570">
<rect width="150" height="150" fill="white"/>
</clipPath>
</defs>
</svg>
